<svg width="29" height="21" viewBox="0 0 29 21" fill="none" xmlns="http://www.w3.org/2000/svg">
<path d="M0 1.07143C0 2.13655 0.863451 3 1.92857 3H27.9286C28.5203 3 29 2.5203 29 1.92857C29 0.863451 28.1365 0 27.0714 0H1.07143C0.479695 0 0 0.479695 0 1.07143Z" fill="url(#paint0_linear_174_36)"/>
<path d="M0 10.0714C0 11.1365 0.863451 12 1.92857 12H27.9286C28.5203 12 29 11.5203 29 10.9286C29 9.86345 28.1365 9 27.0714 9H1.07143C0.479695 9 0 9.47969 0 10.0714Z" fill="url(#paint1_linear_174_36)"/>
<path d="M0 19.0714C0 20.1365 0.863451 21 1.92857 21H27.9286C28.5203 21 29 20.5203 29 19.9286C29 18.8635 28.1365 18 27.0714 18H1.07143C0.479695 18 0 18.4797 0 19.0714Z" fill="url(#paint2_linear_174_36)"/>
<defs>
<linearGradient id="paint0_linear_174_36" x1="-3.89201e-07" y1="5.1865e-07" x2="19.3768" y2="14.5405" gradientUnits="userSpaceOnUse">
<stop stop-color="#29C034"/>
<stop offset="1" stop-color="#A2C029"/>
</linearGradient>
<linearGradient id="paint1_linear_174_36" x1="-3.89201e-07" y1="9" x2="19.3768" y2="23.5405" gradientUnits="userSpaceOnUse">
<stop stop-color="#29C034"/>
<stop offset="1" stop-color="#A2C029"/>
</linearGradient>
<linearGradient id="paint2_linear_174_36" x1="-3.89201e-07" y1="18" x2="19.3768" y2="32.5405" gradientUnits="userSpaceOnUse">
<stop stop-color="#29C034"/>
<stop offset="1" stop-color="#A2C029"/>
</linearGradient>
</defs>
</svg>
