<svg width="32" height="32" viewBox="0 0 32 32" fill="none" xmlns="http://www.w3.org/2000/svg">
<path d="M28.5714 3.42857H25.1429V1.14288C25.1429 0.511674 24.6312 0 24 0C23.3688 0 22.8571 0.511674 22.8571 1.14288V3.42857H9.14283V1.14288C9.14283 0.511674 8.63116 0 8.00002 0C7.36888 0 6.85714 0.511674 6.85714 1.14288V3.42857H3.42857C1.53502 3.42857 0 4.96359 0 6.85714V28.5714C0 30.465 1.53502 32 3.42857 32H28.5714C30.465 32 32 30.465 32 28.5714V6.85714C32 4.96359 30.465 3.42857 28.5714 3.42857ZM29.7142 28.5714C29.7142 29.2026 29.2026 29.7143 28.5714 29.7143H3.42857C2.79736 29.7143 2.28569 29.2026 2.28569 28.5714V13.7143H29.7142V28.5714ZM29.7142 11.4286H2.28569V6.85714C2.28569 6.22593 2.79736 5.71426 3.42857 5.71426H6.85714V7.99995C6.85714 8.63116 7.36881 9.14283 8.00002 9.14283C8.63122 9.14283 9.14289 8.63116 9.14289 7.99995V5.71426H22.8572V7.99995C22.8572 8.63116 23.3688 9.14283 24 9.14283C24.6313 9.14283 25.1429 8.63116 25.1429 7.99995V5.71426H28.5715C29.2027 5.71426 29.7144 6.22593 29.7144 6.85714V11.4286H29.7142Z" fill="white"/>
<path d="M23.637 16.335C23.1941 15.9072 22.492 15.9072 22.0492 16.335L13.7143 24.6698L9.95083 20.9064C9.49681 20.4679 8.77333 20.4805 8.33485 20.9344C7.90708 21.3773 7.90708 22.0794 8.33485 22.5223L12.9063 27.0938C13.3526 27.5399 14.076 27.5399 14.5223 27.0938L23.6651 17.951C24.1036 17.4969 24.091 16.7735 23.637 16.335Z" fill="white"/>
</svg>
