<svg width="41" height="34" viewBox="0 0 41 34" fill="none" xmlns="http://www.w3.org/2000/svg">
<path d="M25.0762 23.8572H15.9333C15.5125 23.8572 15.1714 24.1984 15.1714 24.6191C15.1714 25.0398 15.5125 25.381 15.9333 25.381H25.0762C25.4969 25.381 25.8381 25.0398 25.8381 24.6191C25.8381 24.1984 25.4969 23.8572 25.0762 23.8572Z" fill="white" stroke="white" stroke-width="0.5"/>
<path d="M20.5048 32.9999C20.9255 32.9999 21.2667 32.6588 21.2667 32.238C21.2667 31.8172 20.9255 31.4761 20.5048 31.4761C20.084 31.4761 19.7429 31.8172 19.7429 32.238C19.7429 32.6588 20.084 32.9999 20.5048 32.9999Z" fill="white" stroke="white" stroke-width="0.5"/>
<path d="M39.2476 26.9048H37.7238V12.4286C37.7238 11.1682 36.6984 10.1429 35.4381 10.1429H33.4571V6.33334C33.4571 5.91261 33.116 5.57143 32.6952 5.57143H30.4095V1.76191C30.4095 1.49783 30.2728 1.25257 30.0482 1.11376C29.8237 0.975089 29.5432 0.962289 29.307 1.08038L20.5048 5.48153L11.7026 1.08046C11.4664 0.962289 11.186 0.975013 10.9614 1.11383C10.7367 1.25265 10.6 1.49783 10.6 1.76191V5.57143H8.31429C7.89349 5.57143 7.55238 5.91261 7.55238 6.33334V10.1429H5.57143C4.31109 10.1429 3.28571 11.1682 3.28571 12.4286V26.9048H1.7619C1.3411 26.9048 1 27.2459 1 27.6667C1 30.6075 3.39253 33 6.33333 33H17.0762C17.497 33 17.8381 32.6588 17.8381 32.2381C17.8381 31.8174 17.497 31.4762 17.0762 31.4762H6.33333C4.49364 31.4762 2.95436 30.1653 2.6003 28.4286H15.1714V29.1905C15.1714 29.6112 15.5125 29.9524 15.9333 29.9524H25.0762C25.4969 29.9524 25.8381 29.6112 25.8381 29.1905V28.4278H38.4091C38.0552 30.1653 36.5159 31.4762 34.6762 31.4762H23.9333C23.5126 31.4762 23.1714 31.8174 23.1714 32.2381C23.1714 32.6588 23.5126 33 23.9333 33H34.6762C37.617 33 40.0095 30.6075 40.0095 27.6667C40.0095 27.2459 39.6683 26.9048 39.2476 26.9048ZM31.9333 7.09524V20.8095H23.7322L29.9883 17.6814C30.2465 17.5524 30.4095 17.2886 30.4095 17V7.09524H31.9333ZM28.8857 16.5291L21.2667 20.3386V6.80419L28.8857 2.99467V16.5291ZM12.1238 2.99475L19.7429 6.80427V20.3387L12.1238 16.5291V2.99475ZM9.07619 7.09524H10.6V17C10.6 17.2886 10.763 17.5524 11.0212 17.6814L17.2773 20.8095H9.07619V7.09524ZM25.0762 26.9048C24.6555 26.9048 24.3143 27.2459 24.3143 27.6667V28.4286H16.6952V27.6667C16.6952 27.2459 16.3541 26.9048 15.9333 26.9048H4.80952V12.4286C4.80952 12.0085 5.15131 11.6667 5.57143 11.6667H7.55238V21.5714C7.55238 21.9922 7.89349 22.3333 8.31429 22.3333H32.6952C33.116 22.3333 33.4571 21.9922 33.4571 21.5714V11.6667H35.4381C35.8582 11.6667 36.2 12.0085 36.2 12.4286V26.9048H25.0762Z" fill="white" stroke="white" stroke-width="0.5"/>
</svg>
