<svg width="31" height="38" viewBox="0 0 31 38" fill="none" xmlns="http://www.w3.org/2000/svg">
<path d="M23.0089 14.5074L16.2336 6.43745C16.1473 6.35114 16.1042 6.35114 16.061 6.30799C16.0179 6.30799 16.0179 6.26483 16.0179 6.26483C15.9316 6.22168 15.8452 6.22168 15.7589 6.22168H1.69048C1.30208 6.22168 1 6.52376 1 6.91216V36.0848C1 36.4732 1.30208 36.7753 1.69048 36.7753H22.4911C22.8795 36.7753 23.1815 36.4732 23.1815 36.0848V14.9389C23.1815 14.7663 23.1384 14.6369 23.0089 14.5074ZM16.3631 8.72466L20.8512 14.0758H16.3631V8.72466ZM21.8438 35.3943H2.3378V7.55948H15.0253V14.7232C15.0253 15.1116 15.3274 15.4136 15.7158 15.4136H21.8438V35.3943Z" fill="white" stroke="white" stroke-width="0.5"/>
<path d="M12.3065 11.8318H6.09225C5.70386 11.8318 5.40178 12.1339 5.40178 12.5223C5.40178 12.9107 5.70386 13.2127 6.09225 13.2127H12.3065C12.6949 13.2127 12.997 12.9107 12.997 12.5223C12.997 12.1339 12.6949 11.8318 12.3065 11.8318Z" fill="white" stroke="white" stroke-width="0.5"/>
<path d="M12.3065 27.4539H6.09225C5.70386 27.4539 5.40178 27.7559 5.40178 28.1443C5.40178 28.5327 5.70386 28.8348 6.09225 28.8348H12.3065C12.6949 28.8348 12.997 28.5327 12.997 28.1443C12.997 27.7559 12.6949 27.4539 12.3065 27.4539Z" fill="white" stroke="white" stroke-width="0.5"/>
<path d="M18.4345 17.7441H6.09225C5.70386 17.7441 5.40178 18.0462 5.40178 18.4346C5.40178 18.823 5.70386 19.1251 6.09225 19.1251H18.4345C18.8229 19.1251 19.125 18.823 19.125 18.4346C19.0818 18.0462 18.7798 17.7441 18.4345 17.7441Z" fill="white" stroke="white" stroke-width="0.5"/>
<path d="M18.2619 20.7649H5.91965C5.53125 20.7649 5.22917 21.067 5.22917 21.4554C5.22917 21.8438 5.53125 22.1458 5.91965 22.1458H18.2619C18.6503 22.1458 18.9524 21.8438 18.9524 21.4554C18.9524 21.067 18.6072 20.7649 18.2619 20.7649Z" fill="white" stroke="white" stroke-width="0.5"/>
<path d="M18.2619 24.0447H5.91965C5.53125 24.0447 5.22917 24.3468 5.22917 24.7352C5.22917 25.1235 5.53125 25.4256 5.91965 25.4256H18.2619C18.6503 25.4256 18.9524 25.1235 18.9524 24.7352C18.9524 24.3468 18.6072 24.0447 18.2619 24.0447Z" fill="white" stroke="white" stroke-width="0.5"/>
<path d="M24.7783 1C21.8869 1 19.5565 3.33036 19.5565 6.22173C19.5565 9.1131 21.8869 11.4435 24.7783 11.4435C27.6696 11.4435 30 9.1131 30 6.22173C30 3.33036 27.6696 1 24.7783 1ZM24.7783 10.1057C22.6205 10.1057 20.8943 8.37947 20.8943 6.22173C20.8943 4.06399 22.6205 2.3378 24.7783 2.3378C26.936 2.3378 28.6622 4.06399 28.6622 6.22173C28.6622 8.37947 26.8929 10.1057 24.7783 10.1057Z" fill="white" stroke="white" stroke-width="0.5"/>
<path d="M27.2381 4.75456C27.0655 4.45247 26.6339 4.40932 26.3319 4.62509L24.0878 6.35128L23.3542 5.27241C23.1384 4.97033 22.7069 4.88402 22.4048 5.0998C22.1027 5.31557 22.0164 5.74712 22.2322 6.0492L23.3973 7.68908C23.4836 7.81855 23.6563 7.94801 23.8289 7.94801C23.872 7.94801 23.9152 7.94801 23.9152 7.94801C24.0447 7.94801 24.2173 7.90486 24.3036 7.81855L27.1086 5.70396C27.4107 5.48819 27.4539 5.05664 27.2381 4.75456Z" fill="white" stroke="white" stroke-width="0.5"/>
</svg>
