<svg width="28" height="36" viewBox="0 0 28 36" fill="none" xmlns="http://www.w3.org/2000/svg">
<path d="M5.56284 0L0 5.56291V36H27.7826V0H5.56284ZM6.13758 2.40841V6.13758H2.40841L6.13758 2.40841ZM25.6732 33.8906H2.10937V8.24695H8.24695V2.10938H25.6733V33.8906H25.6732Z" fill="white"/>
<path d="M7.22644 13.3225V15.3846L6.19537 17.1705L7.22644 18.9563V21.0183L8.40649 21.6996L6.0859 30.51L9.41421 30.296L12.2053 32.1218L13.8913 25.721L15.5772 32.1218L18.3683 30.296L21.6966 30.5101L19.376 21.6996L20.5561 21.0184V18.9563L21.5871 17.1705L20.5561 15.3847V13.3226L18.7703 12.2916L17.7392 10.5057H15.6771L13.8913 9.47461L12.1055 10.5056H10.0434L9.0123 12.2915L7.22644 13.3225ZM9.98065 28.1459L8.87119 28.2173L10.031 23.8139L10.0434 23.8353H12.1055L12.1933 23.886L10.911 28.7546L9.98065 28.1459ZM17.8019 28.1459L16.8716 28.7545L15.5893 23.8859L15.6771 23.8352H17.7392L17.7516 23.8138L18.9114 28.2172L17.8019 28.1459ZM9.33581 14.5403L10.5564 13.8357L11.2611 12.615H12.6705L13.8913 11.9103L15.1119 12.615H16.5213L17.226 13.8356L18.4466 14.5403V15.9498L19.1514 17.1704L18.4466 18.3909V19.8004L17.226 20.5051L16.5213 21.7257H15.1119L13.8913 22.4306L12.6707 21.7259H11.2612L10.5565 20.5053L9.33588 19.8006V18.3911L8.63114 17.1706L9.33588 15.95V14.5403H9.33581Z" fill="white"/>
<path d="M12.8366 16.1157H14.946V18.2251H12.8366V16.1157Z" fill="white"/>
</svg>
