<svg width="65" height="90" viewBox="0 0 65 90" fill="none" xmlns="http://www.w3.org/2000/svg">
<g filter="url(#filter0_d_35_1474)">
<path d="M26.7601 51.456H38.2801C38.2801 36.96 54.1201 38.688 54.1201 22.08C54.1201 11.424 46.6321 3.936 32.5201 3.936C19.7521 3.936 11.4001 12.288 10.9201 24H23.0161C23.4961 18.24 27.0481 14.688 33.0001 14.688C38.7601 14.688 42.0241 17.952 42.0241 23.04C42.0241 34.272 26.7601 31.872 26.7601 51.456ZM32.5201 72.864C36.9361 72.864 40.2001 69.408 40.2001 65.184C40.2001 60.96 36.9361 57.504 32.5201 57.504C28.1041 57.504 24.8401 60.96 24.8401 65.184C24.8401 69.408 28.1041 72.864 32.5201 72.864Z" fill="#C6368B"/>
</g>
<defs>
<filter id="filter0_d_35_1474" x="0.920061" y="0.935547" width="63.2" height="88.9287" filterUnits="userSpaceOnUse" color-interpolation-filters="sRGB">
<feFlood flood-opacity="0" result="BackgroundImageFix"/>
<feColorMatrix in="SourceAlpha" type="matrix" values="0 0 0 0 0 0 0 0 0 0 0 0 0 0 0 0 0 0 127 0" result="hardAlpha"/>
<feOffset dy="7"/>
<feGaussianBlur stdDeviation="5"/>
<feColorMatrix type="matrix" values="0 0 0 0 0.776471 0 0 0 0 0.211765 0 0 0 0 0.545098 0 0 0 0.18 0"/>
<feBlend mode="normal" in2="BackgroundImageFix" result="effect1_dropShadow_35_1474"/>
<feBlend mode="normal" in="SourceGraphic" in2="effect1_dropShadow_35_1474" result="shape"/>
</filter>
</defs>
</svg>
